<mxfile host="65bd71144e">
    <diagram name="Page-1" id="8NoAi405iV9w-lXr4pfd">
        <mxGraphModel dx="766" dy="314" grid="1" gridSize="10" guides="1" tooltips="1" connect="1" arrows="1" fold="1" page="1" pageScale="1" pageWidth="850" pageHeight="1100" background="none" math="0" shadow="0">
            <root>
                <mxCell id="0"/>
                <mxCell id="1" parent="0"/>
                <mxCell id="44" value="" style="ellipse;whiteSpace=wrap;html=1;fontSize=10;fillColor=#4D4D4D;fontColor=#ffffff;strokeColor=#1A7633;movable=1;resizable=1;rotatable=1;deletable=1;editable=1;connectable=1;" parent="1" vertex="1">
                    <mxGeometry x="10" y="150" width="800" height="240" as="geometry"/>
                </mxCell>
                <mxCell id="43" style="edgeStyle=none;html=1;exitX=-0.036;exitY=0.489;exitDx=0;exitDy=0;startArrow=classic;startFill=1;exitPerimeter=0;entryX=1.012;entryY=0.411;entryDx=0;entryDy=0;entryPerimeter=0;fontSize=11;strokeColor=#000000;" parent="1" source="94" target="32" edge="1">
                    <mxGeometry relative="1" as="geometry">
                        <mxPoint x="808.2877073170731" y="233.55342080000003" as="sourcePoint"/>
                        <mxPoint x="1013.9140162601625" y="158.4627199999999" as="targetPoint"/>
                    </mxGeometry>
                </mxCell>
                <mxCell id="90" value="Асинхронный&#10;Streaming&#10;Replication" style="edgeLabel;align=center;verticalAlign=middle;resizable=0;points=[];fontSize=9;spacing=2;rotation=0;labelBorderColor=none;" vertex="1" connectable="0" parent="43">
                    <mxGeometry relative="1" as="geometry">
                        <mxPoint as="offset"/>
                    </mxGeometry>
                </mxCell>
                <mxCell id="36" value="" style="edgeStyle=none;exitX=1.002;exitY=0.947;exitDx=0;exitDy=0;startArrow=classic;startFill=1;exitPerimeter=0;entryX=0.004;entryY=0.05;entryDx=0;entryDy=0;entryPerimeter=0;strokeColor=#000000;html=1;" parent="1" source="20" target="32" edge="1">
                    <mxGeometry relative="1" as="geometry">
                        <mxPoint x="539.8861788617886" y="188.4736" as="sourcePoint"/>
                        <mxPoint x="611.4849105691055" y="243.90528000000006" as="targetPoint"/>
                    </mxGeometry>
                </mxCell>
                <mxCell id="80" value="SQL" style="edgeLabel;html=1;align=center;verticalAlign=middle;resizable=0;points=[];fontSize=7;" vertex="1" connectable="0" parent="36">
                    <mxGeometry relative="1" as="geometry">
                        <mxPoint as="offset"/>
                    </mxGeometry>
                </mxCell>
                <mxCell id="50" value="" style="verticalLabelPosition=bottom;html=1;verticalAlign=top;align=center;strokeColor=none;fillColor=#00BEF2;shape=mxgraph.azure.vhd;pointerEvents=1;" parent="1" vertex="1">
                    <mxGeometry x="730.8237398373984" y="225.62240000000003" width="37.5609756097561" height="48" as="geometry"/>
                </mxCell>
                <mxCell id="51" style="edgeStyle=none;html=1;exitX=1.031;exitY=0.527;exitDx=0;exitDy=0;startArrow=classic;startFill=1;exitPerimeter=0;entryX=0;entryY=0.5;entryDx=0;entryDy=0;entryPerimeter=0;strokeColor=#000000;" parent="1" source="94" target="50" edge="1">
                    <mxGeometry relative="1" as="geometry">
                        <mxPoint x="861.2468048780486" y="233.62296319999996" as="sourcePoint"/>
                        <mxPoint x="856.796455284553" y="240.94335999999998" as="targetPoint"/>
                    </mxGeometry>
                </mxCell>
                <mxCell id="9" value="" style="aspect=fixed;perimeter=ellipsePerimeter;html=1;align=center;shadow=0;dashed=0;spacingTop=3;image;image=img/lib/active_directory/internet_globe.svg;" parent="1" vertex="1">
                    <mxGeometry x="144.96747967479672" y="238.64" width="37.70991304347826" height="37.70991304347826" as="geometry"/>
                </mxCell>
                <mxCell id="11" value="" style="edgeStyle=none;startArrow=classic;startFill=1;entryX=0;entryY=0.5;entryDx=0;entryDy=0;strokeColor=#000000;" parent="1" source="97" target="9" edge="1">
                    <mxGeometry relative="1" as="geometry">
                        <mxPoint x="181.80487804878044" y="294.2080000000002" as="targetPoint"/>
                        <mxPoint x="55.06730436977887" y="265.11999999999983" as="sourcePoint"/>
                    </mxGeometry>
                </mxCell>
                <mxCell id="72" value="HTTP" style="edgeLabel;align=center;verticalAlign=middle;resizable=0;points=[];fontSize=7;" vertex="1" connectable="0" parent="11">
                    <mxGeometry x="0.058" relative="1" as="geometry">
                        <mxPoint x="-1" as="offset"/>
                    </mxGeometry>
                </mxCell>
                <mxCell id="31" style="edgeStyle=none;html=1;entryX=0.037;entryY=0.493;entryDx=0;entryDy=0;entryPerimeter=0;startArrow=classic;startFill=1;strokeColor=#000000;" parent="1" source="9" target="153" edge="1">
                    <mxGeometry relative="1" as="geometry">
                        <mxPoint x="211.1313399999999" y="265.61328000000003" as="targetPoint"/>
                    </mxGeometry>
                </mxCell>
                <mxCell id="75" value="HTTP" style="edgeLabel;html=1;align=center;verticalAlign=middle;resizable=0;points=[];fontSize=7;" vertex="1" connectable="0" parent="31">
                    <mxGeometry x="0.212" relative="1" as="geometry">
                        <mxPoint x="-5" y="-1" as="offset"/>
                    </mxGeometry>
                </mxCell>
                <mxCell id="30" style="edgeStyle=none;html=1;exitX=0.829;exitY=0.003;exitDx=0;exitDy=0;entryX=-0.036;entryY=1.001;entryDx=0;entryDy=0;entryPerimeter=0;startArrow=classic;startFill=1;exitPerimeter=0;strokeColor=#000000;" parent="1" source="153" target="20" edge="1">
                    <mxGeometry relative="1" as="geometry">
                        <mxPoint x="290.80999999999995" y="240" as="sourcePoint"/>
                        <mxPoint x="545.520325203252" y="217.17823999999993" as="targetPoint"/>
                    </mxGeometry>
                </mxCell>
                <mxCell id="77" value="HTTP" style="edgeLabel;align=center;verticalAlign=middle;resizable=0;points=[];fontSize=7;" vertex="1" connectable="0" parent="30">
                    <mxGeometry relative="1" as="geometry">
                        <mxPoint as="offset"/>
                    </mxGeometry>
                </mxCell>
                <mxCell id="94" value="" style="aspect=fixed;html=1;points=[];align=center;image;fontSize=12;image=img/lib/azure2/databases/Azure_Database_PostgreSQL_Server.svg;" vertex="1" parent="1">
                    <mxGeometry x="635.0013008130079" y="216.89000000000004" width="46.08858434782609" height="61.45537391304347" as="geometry"/>
                </mxCell>
                <mxCell id="95" value="&lt;font color=&quot;#ffffff&quot; style=&quot;font-size: 10px;&quot;&gt;VM-6 - Standby PostgreSQL&lt;/font&gt;" style="text;strokeColor=none;align=center;fillColor=none;html=1;verticalAlign=middle;whiteSpace=wrap;rounded=0;fontSize=10;" vertex="1" parent="1">
                    <mxGeometry x="620" y="279.57" width="73.42" height="22.25" as="geometry"/>
                </mxCell>
                <mxCell id="96" value="&lt;font color=&quot;#ffffff&quot; style=&quot;font-size: 10px;&quot;&gt;HDD-1 - PostgreSQL_dump&lt;/font&gt;" style="text;strokeColor=none;align=center;fillColor=none;html=1;verticalAlign=middle;whiteSpace=wrap;rounded=0;fontSize=10;" vertex="1" parent="1">
                    <mxGeometry x="713.0043089430894" y="279.3408" width="79.1910569105691" height="22.2592" as="geometry"/>
                </mxCell>
                <mxCell id="97" value="&lt;font color=&quot;#ffffff&quot; style=&quot;font-size: 10px;&quot;&gt;devices&lt;/font&gt;" style="sketch=0;outlineConnect=0;dashed=0;verticalLabelPosition=bottom;verticalAlign=top;align=center;html=1;fontSize=7;fontStyle=0;shape=mxgraph.aws4.illustration_devices;pointerEvents=1;aspect=fixed;fillColor=#3333FF;strokeColor=#3700CC;fontColor=#ffffff;" vertex="1" parent="1">
                    <mxGeometry x="25.3" y="230" width="75.06" height="52.54" as="geometry"/>
                </mxCell>
                <mxCell id="20" value="" style="sketch=0;html=1;aspect=fixed;strokeColor=none;shadow=0;align=center;verticalAlign=top;fillColor=#3B8DF1;shape=mxgraph.gcp2.cloud_server" parent="1" vertex="1">
                    <mxGeometry x="360" y="160.08000000000004" width="48.93" height="43.54" as="geometry"/>
                </mxCell>
                <mxCell id="18" value="&lt;font style=&quot;font-size: 10px;&quot; color=&quot;#ffffff&quot;&gt;VM-1 - Nginx proxy server, Zabbix, Terraform, Ansible&lt;/font&gt;" style="text;strokeColor=none;align=center;fillColor=none;html=1;verticalAlign=middle;whiteSpace=wrap;rounded=0;fontSize=10;glass=0;shadow=0;strokeWidth=1;" parent="1" vertex="1">
                    <mxGeometry x="210.76" y="286.37" width="89.81" height="38.09" as="geometry"/>
                </mxCell>
                <mxCell id="153" value="" style="sketch=0;html=1;aspect=fixed;strokeColor=none;shadow=0;align=center;verticalAlign=top;fillColor=#3B8DF1;shape=mxgraph.gcp2.cloud_server" vertex="1" parent="1">
                    <mxGeometry x="224" y="230" width="63.34" height="56.37" as="geometry"/>
                </mxCell>
                <mxCell id="155" value="" style="sketch=0;html=1;aspect=fixed;strokeColor=none;shadow=0;align=center;verticalAlign=top;fillColor=#3B8DF1;shape=mxgraph.gcp2.cloud_server" vertex="1" parent="1">
                    <mxGeometry x="360" y="234.81000000000003" width="48.93" height="43.54" as="geometry"/>
                </mxCell>
                <mxCell id="157" style="edgeStyle=none;html=1;exitX=0.948;exitY=0.406;exitDx=0;exitDy=0;entryX=0.057;entryY=0.494;entryDx=0;entryDy=0;entryPerimeter=0;startArrow=classic;startFill=1;exitPerimeter=0;strokeColor=#000000;" edge="1" parent="1" source="153" target="155">
                    <mxGeometry relative="1" as="geometry">
                        <mxPoint x="260.56297000000006" y="251.85062000000005" as="sourcePoint"/>
                        <mxPoint x="298.2385200000001" y="224.28354000000002" as="targetPoint"/>
                    </mxGeometry>
                </mxCell>
                <mxCell id="158" value="HTTP" style="edgeLabel;align=center;verticalAlign=middle;resizable=0;points=[];fontSize=7;" vertex="1" connectable="0" parent="157">
                    <mxGeometry relative="1" as="geometry">
                        <mxPoint as="offset"/>
                    </mxGeometry>
                </mxCell>
                <mxCell id="159" value="" style="sketch=0;html=1;aspect=fixed;strokeColor=none;shadow=0;align=center;verticalAlign=top;fillColor=#3B8DF1;shape=mxgraph.gcp2.cloud_server" vertex="1" parent="1">
                    <mxGeometry x="359" y="312.46000000000004" width="48.93" height="43.54" as="geometry"/>
                </mxCell>
                <mxCell id="160" value="&lt;p style=&quot;line-height: 120%; font-size: 10px;&quot;&gt;&lt;font color=&quot;#ffffff&quot; style=&quot;font-size: 10px;&quot;&gt;VM-4 - server MediaWiki-3&lt;/font&gt;&lt;/p&gt;" style="text;strokeColor=none;align=center;fillColor=none;html=1;verticalAlign=middle;whiteSpace=wrap;rounded=0;fontSize=10;" vertex="1" parent="1">
                    <mxGeometry x="349.71" y="359" width="70.5" height="20" as="geometry"/>
                </mxCell>
                <mxCell id="161" style="edgeStyle=none;html=1;exitX=1.005;exitY=0.735;exitDx=0;exitDy=0;entryX=0.13;entryY=0.171;entryDx=0;entryDy=0;entryPerimeter=0;startArrow=classic;startFill=1;exitPerimeter=0;strokeColor=#000000;" edge="1" parent="1" source="153" target="159">
                    <mxGeometry relative="1" as="geometry">
                        <mxPoint x="266.38563999999997" y="269.39724" as="sourcePoint"/>
                        <mxPoint x="308.7890100000001" y="269.78876" as="targetPoint"/>
                    </mxGeometry>
                </mxCell>
                <mxCell id="162" value="HTTP" style="edgeLabel;align=center;verticalAlign=middle;resizable=0;points=[];fontSize=7;" vertex="1" connectable="0" parent="161">
                    <mxGeometry relative="1" as="geometry">
                        <mxPoint as="offset"/>
                    </mxGeometry>
                </mxCell>
                <mxCell id="32" value="" style="aspect=fixed;html=1;points=[];align=center;image;fontSize=12;image=img/lib/azure2/databases/Azure_Database_PostgreSQL_Server.svg;" parent="1" vertex="1">
                    <mxGeometry x="504.6739837398374" y="221.08439999999996" width="46.08858434782609" height="61.45537391304347" as="geometry"/>
                </mxCell>
                <mxCell id="165" value="" style="edgeStyle=none;exitX=0.934;exitY=0.414;exitDx=0;exitDy=0;startArrow=classic;startFill=1;exitPerimeter=0;entryX=-0.056;entryY=0.547;entryDx=0;entryDy=0;entryPerimeter=0;strokeColor=#000000;html=1;" edge="1" parent="1" source="155" target="32">
                    <mxGeometry relative="1" as="geometry">
                        <mxPoint x="349.0278599999999" y="221.93238000000008" as="sourcePoint"/>
                        <mxPoint x="412.18833807722854" y="235.17716869565209" as="targetPoint"/>
                    </mxGeometry>
                </mxCell>
                <mxCell id="166" value="SQL" style="edgeLabel;html=1;align=center;verticalAlign=middle;resizable=0;points=[];fontSize=7;" vertex="1" connectable="0" parent="165">
                    <mxGeometry relative="1" as="geometry">
                        <mxPoint as="offset"/>
                    </mxGeometry>
                </mxCell>
                <mxCell id="167" value="" style="edgeStyle=none;exitX=0.946;exitY=0.464;exitDx=0;exitDy=0;startArrow=classic;startFill=1;exitPerimeter=0;strokeColor=#000000;html=1;entryX=-0.033;entryY=0.796;entryDx=0;entryDy=0;entryPerimeter=0;" edge="1" parent="1" source="159" target="32">
                    <mxGeometry relative="1" as="geometry">
                        <mxPoint x="351.7006200000001" y="266.30556" as="sourcePoint"/>
                        <mxPoint x="409.42302301635914" y="265.72048953043475" as="targetPoint"/>
                    </mxGeometry>
                </mxCell>
                <mxCell id="168" value="SQL" style="edgeLabel;html=1;align=center;verticalAlign=middle;resizable=0;points=[];fontSize=7;" vertex="1" connectable="0" parent="167">
                    <mxGeometry relative="1" as="geometry">
                        <mxPoint as="offset"/>
                    </mxGeometry>
                </mxCell>
                <mxCell id="169" value="&lt;font style=&quot;font-size: 7px;&quot; color=&quot;#ffffff&quot;&gt;Internet&lt;/font&gt;" style="text;strokeColor=none;align=center;fillColor=none;html=1;verticalAlign=middle;whiteSpace=wrap;rounded=0;fontSize=7;" vertex="1" parent="1">
                    <mxGeometry x="147.48" y="275.38" width="32.68" height="14.74" as="geometry"/>
                </mxCell>
                <mxCell id="170" value="&lt;p style=&quot;line-height: 120%; font-size: 10px;&quot;&gt;&lt;font color=&quot;#ffffff&quot; style=&quot;font-size: 10px;&quot;&gt;VM-3 - server MediaWiki-2&lt;/font&gt;&lt;/p&gt;" style="text;strokeColor=none;align=center;fillColor=none;html=1;verticalAlign=middle;whiteSpace=wrap;rounded=0;fontSize=10;" vertex="1" parent="1">
                    <mxGeometry x="349.71" y="280.69" width="70.5" height="20" as="geometry"/>
                </mxCell>
                <mxCell id="171" value="&lt;p style=&quot;line-height: 120%; font-size: 10px;&quot;&gt;&lt;font color=&quot;#ffffff&quot; style=&quot;font-size: 10px;&quot;&gt;VM-3 - server MediaWiki-1&lt;/font&gt;&lt;/p&gt;" style="text;strokeColor=none;align=center;fillColor=none;html=1;verticalAlign=middle;whiteSpace=wrap;rounded=0;fontSize=10;" vertex="1" parent="1">
                    <mxGeometry x="349.71" y="208" width="70.5" height="20" as="geometry"/>
                </mxCell>
                <mxCell id="34" value="&lt;font color=&quot;#ffffff&quot; style=&quot;font-size: 10px;&quot;&gt;VM-5 - Primary PostgreSQL&lt;/font&gt;" style="text;strokeColor=none;align=center;fillColor=none;html=1;verticalAlign=middle;whiteSpace=wrap;rounded=0;fontSize=10;" parent="1" vertex="1">
                    <mxGeometry x="492.3478861788618" y="286.36548571428574" width="70.73983739837398" height="22.253714285714288" as="geometry"/>
                </mxCell>
            </root>
        </mxGraphModel>
    </diagram>
</mxfile>